<svg width="201" height="51" viewBox="0 0 201 51" fill="none" xmlns="http://www.w3.org/2000/svg">
<path d="M2.436 40.304V8.926C2.436 8.07533 2.28133 7.476 1.972 7.128C1.66267 6.74133 1.102 6.548 0.29 6.548C0.251333 5.54267 0.522 4.75 1.102 4.17C1.682 3.59 2.61 3.3 3.886 3.3C5.162 3.3 6.07067 3.938 6.612 5.214C8.12 3.938 9.66667 3.3 11.252 3.3C15.08 3.3 16.994 5.19466 16.994 8.984V22.44C16.994 24.876 15.9693 26.616 13.92 27.66L15.138 35.432C15.3313 36.6693 15.9307 37.288 16.936 37.288C17.2453 37.288 17.6127 37.2107 18.038 37.056C18.1927 37.52 18.27 38.0807 18.27 38.738C18.27 39.3567 17.9413 39.9947 17.284 40.652C16.6653 41.2707 15.8533 41.58 14.848 41.58C12.5667 41.58 11.2713 40.594 10.962 38.622L9.28 28.588H7.018V35.548L7.25 41C5.93533 41.1933 4.64 41.29 3.364 41.29C2.74533 41.29 2.436 40.9613 2.436 40.304ZM10.15 7.128C9.106 7.128 8.062 7.65 7.018 8.694V24.76H9.686C10.498 24.76 11.1553 24.5667 11.658 24.18C12.1607 23.7547 12.412 23.1747 12.412 22.44V9.332C12.412 7.86266 11.658 7.128 10.15 7.128ZM30.3372 17.336C30.3372 15.8667 30.2018 14.2813 29.9312 12.58C31.0912 12.4253 32.3478 12.348 33.7012 12.348C34.3585 12.348 34.6872 12.638 34.6872 13.218V36.186C34.6872 36.998 34.8225 37.578 35.0932 37.926C35.4025 38.274 35.9632 38.448 36.7752 38.448C36.8138 39.4533 36.5432 40.2267 35.9632 40.768C35.4218 41.3093 34.6292 41.58 33.5852 41.58C32.0385 41.58 31.0525 40.9807 30.6272 39.782C29.4285 40.9807 28.0752 41.58 26.5672 41.58C25.0592 41.58 23.8412 41.0773 22.9132 40.072C21.9852 39.028 21.5212 37.5587 21.5212 35.664V17.394C21.5212 16.582 21.3665 16.002 21.0572 15.654C20.7865 15.306 20.2452 15.132 19.4332 15.132C19.3945 14.1653 19.6652 13.4113 20.2452 12.87C20.8638 12.29 21.7145 12 22.7972 12C23.8798 12 24.6532 12.3093 25.1172 12.928C25.6198 13.5467 25.8712 14.5713 25.8712 16.002V35.606C25.8712 36.9593 26.4318 37.636 27.5532 37.636C28.1332 37.636 28.6745 37.4233 29.1772 36.998C29.7185 36.534 30.1052 36.0507 30.3372 35.548V17.336ZM44.1149 36.244C44.1149 38.1387 44.2502 39.724 44.5209 41C43.3609 41.1547 42.1042 41.232 40.7509 41.232C40.0936 41.232 39.7649 40.942 39.7649 40.362V17.394C39.7649 16.582 39.6102 16.002 39.3009 15.654C39.0302 15.306 38.4889 15.132 37.6769 15.132C37.6382 14.1267 37.8896 13.3533 38.4309 12.812C39.0109 12.2707 39.9196 12 41.1569 12C42.4329 12 43.3222 12.5993 43.8249 13.798C45.0236 12.5993 46.4542 12 48.1169 12C49.8182 12 51.0942 12.754 51.9449 14.262C53.2596 12.754 54.7096 12 56.2949 12C57.9189 12 59.1562 12.4833 60.0069 13.45C60.8576 14.4167 61.2829 15.7893 61.2829 17.568V36.186C61.2829 36.998 61.4182 37.578 61.6889 37.926C61.9982 38.274 62.5589 38.448 63.3709 38.448C63.4096 39.4533 63.1389 40.2267 62.5589 40.768C62.0176 41.3093 61.2056 41.58 60.1229 41.58C59.0402 41.58 58.2282 41.2513 57.6869 40.594C57.1842 39.9367 56.9329 38.854 56.9329 37.346V17.916C56.9329 16.64 56.3336 16.002 55.1349 16.002C54.0909 16.002 53.2789 16.6013 52.6989 17.8V36.244C52.6989 38.1387 52.8342 39.724 53.1049 41C51.9449 41.1547 50.6882 41.232 49.3349 41.232C48.6776 41.232 48.3489 40.942 48.3489 40.362V17.916C48.3489 16.64 47.7496 16.002 46.5509 16.002C45.5069 16.002 44.6949 16.6013 44.1149 17.8V36.244ZM70.5661 36.244C70.5661 38.1387 70.7014 39.724 70.9721 41C69.8121 41.1547 68.5554 41.232 67.2021 41.232C66.5447 41.232 66.2161 40.942 66.2161 40.362V17.394C66.2161 16.582 66.0614 16.002 65.7521 15.654C65.4814 15.306 64.9401 15.132 64.1281 15.132C64.0894 14.1267 64.3407 13.3533 64.8821 12.812C65.4621 12.2707 66.3707 12 67.6081 12C68.8841 12 69.7734 12.5993 70.2761 13.798C71.4747 12.5993 72.9054 12 74.5681 12C76.2694 12 77.5454 12.754 78.3961 14.262C79.7107 12.754 81.1607 12 82.7461 12C84.3701 12 85.6074 12.4833 86.4581 13.45C87.3087 14.4167 87.7341 15.7893 87.7341 17.568V36.186C87.7341 36.998 87.8694 37.578 88.1401 37.926C88.4494 38.274 89.0101 38.448 89.8221 38.448C89.8607 39.4533 89.5901 40.2267 89.0101 40.768C88.4687 41.3093 87.6567 41.58 86.5741 41.58C85.4914 41.58 84.6794 41.2513 84.1381 40.594C83.6354 39.9367 83.3841 38.854 83.3841 37.346V17.916C83.3841 16.64 82.7847 16.002 81.5861 16.002C80.5421 16.002 79.7301 16.6013 79.1501 17.8V36.244C79.1501 38.1387 79.2854 39.724 79.5561 41C78.3961 41.1547 77.1394 41.232 75.7861 41.232C75.1287 41.232 74.8001 40.942 74.8001 40.362V17.916C74.8001 16.64 74.2007 16.002 73.0021 16.002C71.9581 16.002 71.1461 16.6013 70.5661 17.8V36.244ZM101.309 17.336C101.309 15.4413 101.174 13.856 100.903 12.58C102.063 12.4253 103.32 12.348 104.673 12.348C105.331 12.348 105.659 12.638 105.659 13.218V45.118C105.659 46.858 105.041 48.1727 103.803 49.062C102.605 49.9513 100.981 50.396 98.9312 50.396C96.8819 50.396 95.2966 50.0093 94.1752 49.236C93.0539 48.4627 92.4932 47.3993 92.4932 46.046V43.9C92.4932 43.2427 92.9572 42.7787 93.8852 42.508C94.3492 42.392 94.8326 42.334 95.3352 42.334C95.8766 42.334 96.3986 42.392 96.9012 42.508C96.7852 43.436 96.7272 44.248 96.7272 44.944V45.234C96.7272 46.2007 97.4812 46.684 98.9892 46.684C100.536 46.684 101.309 46.0073 101.309 44.654V38.912C100.343 39.8787 99.0859 40.362 97.5392 40.362C96.0312 40.362 94.8132 39.8787 93.8852 38.912C92.9572 37.9067 92.4932 36.4567 92.4932 34.562V17.394C92.4932 16.582 92.3386 16.002 92.0292 15.654C91.7586 15.306 91.2172 15.132 90.4052 15.132C90.3666 14.1653 90.6372 13.4113 91.2172 12.87C91.8359 12.29 92.6866 12 93.7692 12C94.8519 12 95.6252 12.3093 96.0892 12.928C96.5919 13.5467 96.8432 14.5713 96.8432 16.002V34.504C96.8432 35.78 97.3459 36.418 98.3512 36.418C98.8926 36.418 99.4532 36.244 100.033 35.896C100.613 35.5093 101.039 35.084 101.309 34.62V17.336Z" fill="#84000F"/>
<path d="M124.847 7.128C123.803 7.128 122.759 7.65 121.715 8.694V35.548L121.947 41C120.633 41.1933 119.337 41.29 118.061 41.29C117.443 41.29 117.133 40.9613 117.133 40.304V8.926C117.133 8.07533 116.979 7.476 116.669 7.128C116.36 6.74133 115.799 6.548 114.987 6.548C114.949 5.54267 115.219 4.75 115.799 4.17C116.379 3.59 117.307 3.3 118.583 3.3C119.859 3.3 120.768 3.938 121.309 5.214C122.817 3.938 124.364 3.3 125.949 3.3C129.777 3.3 131.691 5.19466 131.691 8.984V36.07C131.691 36.882 131.846 37.462 132.155 37.81C132.503 38.1193 133.083 38.274 133.895 38.274C133.895 40.478 132.658 41.58 130.183 41.58C128.134 41.58 127.109 40.246 127.109 37.578V9.332C127.109 7.86266 126.355 7.128 124.847 7.128ZM141.782 30.386C140.506 31.2367 139.868 32.6673 139.868 34.678C139.868 36.65 140.468 37.636 141.666 37.636C142.904 37.636 143.87 36.94 144.566 35.548V28.53L141.782 30.386ZM142.42 12C146.751 12 148.916 13.914 148.916 17.742V36.186C148.916 36.998 149.052 37.578 149.322 37.926C149.632 38.274 150.192 38.448 151.004 38.448C151.043 39.4533 150.772 40.2267 150.192 40.768C149.651 41.3093 148.858 41.58 147.814 41.58C146.19 41.58 145.204 40.9807 144.856 39.782C143.658 40.9807 142.246 41.58 140.622 41.58C138.998 41.58 137.703 40.9613 136.736 39.724C135.77 38.4867 135.286 36.824 135.286 34.736C135.286 31.5653 136.62 29.168 139.288 27.544L144.566 24.412V18.148C144.566 16.524 143.793 15.712 142.246 15.712C140.738 15.712 139.984 16.6207 139.984 18.438V20.352L140.158 23.078C139.656 23.194 139.134 23.252 138.592 23.252C138.09 23.252 137.606 23.1747 137.142 23.02C136.214 22.788 135.75 22.3433 135.75 21.686V16.93C135.75 15.3833 136.35 14.1847 137.548 13.334C138.786 12.4447 140.41 12 142.42 12ZM153.318 5.04C153.318 3.88 153.144 2.70066 152.796 1.502C153.956 0.883331 155.194 0.573998 156.508 0.573998C157.282 0.573998 157.668 0.863998 157.668 1.444V13.508C158.867 12.5027 160.104 12 161.38 12C164.783 12 166.484 13.972 166.484 17.916V34.852C166.484 36.7853 165.885 38.2933 164.686 39.376C163.488 40.4587 161.864 41 159.814 41H153.318V5.04ZM157.668 37.288H159.93C160.588 37.288 161.11 37.0947 161.496 36.708C161.922 36.2827 162.134 35.7413 162.134 35.084V17.974C162.134 16.6593 161.554 16.002 160.394 16.002C159.234 16.002 158.326 16.6013 157.668 17.8V37.288ZM170.192 35.664V18.148C170.192 16.2147 170.791 14.7067 171.99 13.624C173.189 12.5413 174.813 12 176.862 12C178.911 12 180.497 12.5027 181.618 13.508C182.778 14.5133 183.358 15.9827 183.358 17.916V35.432C183.358 37.3653 182.739 38.8733 181.502 39.956C180.303 41.0387 178.679 41.58 176.63 41.58C174.581 41.58 172.995 41.0773 171.874 40.072C170.753 39.0667 170.192 37.5973 170.192 35.664ZM174.542 17.916V35.664C174.542 36.3213 174.755 36.882 175.18 37.346C175.605 37.7713 176.127 37.984 176.746 37.984C177.403 37.984 177.945 37.7713 178.37 37.346C178.795 36.882 179.008 36.3213 179.008 35.664V17.916C179.008 17.2587 178.795 16.7173 178.37 16.292C177.945 15.828 177.403 15.596 176.746 15.596C176.127 15.596 175.605 15.828 175.18 16.292C174.755 16.7173 174.542 17.2587 174.542 17.916ZM187.303 5.04C187.303 3.88 187.129 2.70066 186.781 1.502C187.941 0.883331 189.178 0.573998 190.493 0.573998C191.266 0.573998 191.653 0.863998 191.653 1.444V13.508C192.852 12.5027 194.089 12 195.365 12C198.768 12 200.469 13.972 200.469 17.916V34.852C200.469 36.7853 199.87 38.2933 198.671 39.376C197.472 40.4587 195.848 41 193.799 41H187.303V5.04ZM191.653 37.288H193.915C194.572 37.288 195.094 37.0947 195.481 36.708C195.906 36.2827 196.119 35.7413 196.119 35.084V17.974C196.119 16.6593 195.539 16.002 194.379 16.002C193.219 16.002 192.31 16.6013 191.653 17.8V37.288Z" fill="#077872"/>
</svg>
