<svg width="348" height="295" viewBox="0 0 348 295" fill="none" xmlns="http://www.w3.org/2000/svg">
<g opacity="0.07">
<path d="M120.685 134.04H73.9452C68.3807 134.04 63.65 132.093 59.7547 128.198C55.8616 124.303 53.9125 119.574 53.9125 114.008V107.334C53.9125 92.5879 59.1299 80.0001 69.5639 69.5661C79.9972 59.1357 92.5871 53.9184 107.332 53.9184H120.685C124.301 53.9184 127.429 52.5963 130.073 49.9543C132.716 47.3109 134.037 44.1823 134.037 40.5654V13.8551C134.037 10.239 132.715 7.10741 130.073 4.46401C127.43 1.82426 124.301 0.5 120.685 0.5H107.332C92.8634 0.5 79.0603 3.31953 65.9134 8.95056C52.768 14.5852 41.3978 22.2019 31.7984 31.8013C22.1997 41.3964 14.5852 52.7673 8.95129 65.9142C3.31734 79.0595 0.5 92.8663 0.5 107.333V254.223C0.5 265.357 4.39312 274.811 12.183 282.604C19.9736 290.392 29.4349 294.286 40.5625 294.286H120.69C131.816 294.286 141.275 290.392 149.066 282.604C156.855 274.811 160.75 265.357 160.75 254.223V174.103C160.75 162.971 156.855 153.517 149.061 145.723C141.273 137.936 131.811 134.04 120.685 134.04Z" fill="#B91B31"/>
<path d="M336.025 145.723C328.237 137.936 318.778 134.04 307.648 134.04H260.91C255.348 134.04 250.613 132.093 246.724 128.198C242.828 124.303 240.882 119.574 240.882 114.008V107.334C240.882 92.5879 246.1 80.0001 256.528 69.5661C266.958 59.1357 279.547 53.9184 294.299 53.9184H307.649C311.266 53.9184 314.397 52.5963 317.039 49.9543C319.679 47.3109 321.006 44.1823 321.006 40.5654V13.8551C321.006 10.239 319.68 7.10741 317.039 4.46401C314.398 1.82426 311.267 0.5 307.649 0.5H294.299C279.823 0.5 266.023 3.31953 252.872 8.95056C239.729 14.5852 228.362 22.2019 218.763 31.8013C209.164 41.3964 201.545 52.7673 195.914 65.9142C190.281 79.0595 187.46 92.8663 187.46 107.333V254.223C187.46 265.357 191.357 274.811 199.145 282.604C206.933 290.392 216.392 294.286 227.521 294.286H307.644C318.774 294.286 328.232 290.392 336.02 282.604C343.813 274.811 347.702 265.357 347.702 254.223V174.103C347.703 162.97 343.813 153.517 336.025 145.723Z" fill="#B91B31"/>
</g>
</svg>
