<svg width="348" height="295" viewBox="0 0 348 295" fill="none" xmlns="http://www.w3.org/2000/svg">
<g opacity="0.07">
<path d="M227.518 134.04H274.257C279.821 134.04 284.552 132.093 288.447 128.198C292.341 124.303 294.29 119.574 294.29 114.008V107.334C294.29 92.5879 289.072 80.0001 278.638 69.5661C268.205 59.1357 255.615 53.9184 240.871 53.9184H227.518C223.901 53.9184 220.773 52.5963 218.129 49.9543C215.486 47.3109 214.165 44.1823 214.165 40.5654V13.8551C214.165 10.239 215.487 7.10741 218.129 4.46401C220.772 1.82426 223.901 0.5 227.518 0.5H240.871C255.339 0.5 269.142 3.31953 282.289 8.95056C295.434 14.5852 306.804 22.2019 316.404 31.8013C326.002 41.3964 333.617 52.7673 339.251 65.9142C344.885 79.0595 347.702 92.8663 347.702 107.333V254.223C347.702 265.357 343.809 274.811 336.019 282.604C328.229 290.392 318.767 294.286 307.64 294.286H227.513C216.386 294.286 206.927 290.392 199.136 282.604C191.348 274.811 187.452 265.357 187.452 254.223V174.103C187.452 162.971 191.348 153.517 199.141 145.723C206.929 137.936 216.391 134.04 227.518 134.04Z" fill="#F0AF1D"/>
<path d="M12.1772 145.723C19.9649 137.936 29.424 134.04 40.5537 134.04H87.2923C92.8539 134.04 97.589 132.093 101.478 128.198C105.374 124.303 107.32 119.574 107.32 114.008V107.334C107.32 92.5879 102.103 80.0001 91.6737 69.5661C81.244 59.1357 68.6548 53.9184 53.903 53.9184H40.553C36.9361 53.9184 33.8053 52.5963 31.1633 49.9543C28.5229 47.3109 27.1964 44.1823 27.1964 40.5654V13.8551C27.1964 10.239 28.5221 7.10741 31.1633 4.46401C33.8046 1.82426 36.9354 0.5 40.553 0.5H53.903C68.3793 0.5 82.1795 3.31953 95.33 8.95056C108.473 14.5852 119.84 22.2019 129.439 31.8013C139.039 41.3964 146.657 52.7673 152.288 65.9142C157.921 79.0595 160.742 92.8663 160.742 107.333V254.223C160.742 265.357 156.845 274.811 149.057 282.604C141.269 290.392 131.81 294.286 120.681 294.286H40.5581C29.4284 294.286 19.97 290.392 12.1823 282.604C4.38875 274.811 0.500031 265.357 0.500031 254.223V174.103C0.499298 162.97 4.38876 153.517 12.1772 145.723Z" fill="#F0AF1D"/>
</g>
</svg>
