<svg width="25" height="26" viewBox="0 0 25 26" fill="none" xmlns="http://www.w3.org/2000/svg">
<path d="M17.829 22.0109H16.634C16.1585 22.0109 15.7026 21.8221 15.3664 21.4859C15.0302 21.1497 14.8414 20.6938 14.8414 20.2183V16.6332C14.8414 16.4747 14.7784 16.3227 14.6664 16.2107C14.5543 16.0986 14.4023 16.0356 14.2438 16.0356H10.6587C10.5002 16.0356 10.3482 16.0986 10.2362 16.2107C10.1241 16.3227 10.0611 16.4747 10.0611 16.6332V20.2183C10.0611 20.6938 9.87229 21.1497 9.53611 21.4859C9.19994 21.8221 8.74399 22.0109 8.26856 22.0109H7.07351C6.67899 22.0109 6.28838 22.089 5.92422 22.2408C5.56006 22.3925 5.22956 22.6149 4.95179 22.8951C4.67402 23.1752 4.45449 23.5076 4.30587 23.873C4.15724 24.2385 4.08247 24.6298 4.08586 25.0243C4.09086 25.1788 4.15622 25.3252 4.26792 25.4321C4.37963 25.539 4.52879 25.5979 4.68339 25.5961H20.2191C20.3737 25.5979 20.5229 25.539 20.6346 25.4321C20.7463 25.3252 20.8117 25.1788 20.8167 25.0243C20.82 24.6298 20.7453 24.2385 20.5967 23.873C20.448 23.5076 20.2285 23.1752 19.9507 22.8951C19.673 22.6149 19.3425 22.3925 18.9783 22.2408C18.6141 22.089 18.2235 22.0109 17.829 22.0109Z" fill="#F1C40F"/>
<path d="M5.87845 25.0243C5.87506 24.6298 5.94983 24.2385 6.09845 23.873C6.24708 23.5076 6.46661 23.1752 6.74437 22.8951C7.02214 22.6149 7.35264 22.3925 7.7168 22.2408C8.08097 22.089 8.47158 22.0109 8.86609 22.0109H10.0611C10.5366 22.0109 10.9925 21.8221 11.3287 21.4859C11.6649 21.1497 11.8537 20.6938 11.8537 20.2183V16.6332C11.8537 16.4747 11.9167 16.3227 12.0287 16.2107C12.1408 16.0986 12.2928 16.0356 12.4513 16.0356H10.6587C10.5002 16.0356 10.3482 16.0986 10.2362 16.2107C10.1241 16.3227 10.0611 16.4747 10.0611 16.6332V20.2183C10.0611 20.6938 9.87229 21.1497 9.53611 21.4859C9.19994 21.8221 8.74399 22.0109 8.26856 22.0109H7.07351C6.67899 22.0109 6.28838 22.089 5.92422 22.2408C5.56006 22.3925 5.22956 22.6149 4.95179 22.8951C4.67402 23.1752 4.45449 23.5076 4.30587 23.873C4.15724 24.2385 4.08247 24.6298 4.08586 25.0243C4.09086 25.1788 4.15622 25.3252 4.26792 25.4321C4.37963 25.539 4.52879 25.5979 4.68339 25.5961H6.47598C6.32137 25.5979 6.17222 25.539 6.06051 25.4321C5.9488 25.3252 5.88344 25.1788 5.87845 25.0243Z" fill="#F39C12"/>
<path d="M7.04664 14.1611C7.1041 13.9305 7.06764 13.6865 6.94529 13.4828C6.82293 13.2791 6.62469 13.1324 6.39414 13.0748C6.24535 13.0347 2.62971 11.9891 2.30645 5.87814H4.98816C5.22587 5.87814 5.45384 5.78371 5.62193 5.61563C5.79002 5.44754 5.88445 5.21956 5.88445 4.98185C5.88453 4.8641 5.8614 4.74748 5.81639 4.63867C5.77139 4.52986 5.70538 4.43098 5.62214 4.34769C5.5389 4.2644 5.44007 4.19832 5.33129 4.15324C5.22251 4.10816 5.10591 4.08496 4.98816 4.08496H2.00051C1.79976 4.08592 1.60121 4.12695 1.41652 4.20565C1.23183 4.28435 1.06471 4.39913 0.924963 4.54327C0.784698 4.68504 0.674752 4.85388 0.601817 5.03951C0.528883 5.22513 0.494485 5.42366 0.500718 5.623C0.764228 13.4285 5.74761 14.7604 5.95914 14.8136C6.07339 14.8422 6.19217 14.848 6.30867 14.8307C6.42518 14.8134 6.53713 14.7733 6.63813 14.7127C6.73913 14.6521 6.82719 14.5722 6.89729 14.4776C6.96738 14.3829 7.01814 14.2754 7.04664 14.1611Z" fill="#E67E22"/>
<path d="M17.8559 14.1611C17.7985 13.9305 17.8349 13.6865 17.9573 13.4828C18.0797 13.2791 18.2779 13.1324 18.5084 13.0748C18.6572 13.0347 22.2729 11.9891 22.5961 5.87814H19.9144C19.6767 5.87814 19.4487 5.78371 19.2807 5.61563C19.1126 5.44754 19.0181 5.21956 19.0181 4.98185C19.0181 4.8641 19.0412 4.74748 19.0862 4.63867C19.1312 4.52986 19.1972 4.43098 19.2804 4.34769C19.3637 4.2644 19.4625 4.19832 19.5713 4.15324C19.6801 4.10816 19.7967 4.08496 19.9144 4.08496H22.9021C23.1028 4.08592 23.3014 4.12695 23.4861 4.20565C23.6708 4.28435 23.8379 4.39913 23.9776 4.54327C24.1168 4.68554 24.2257 4.85461 24.2976 5.04021C24.3695 5.22581 24.4029 5.42408 24.3959 5.623C24.1324 13.4285 19.149 14.7604 18.9375 14.8136C18.7076 14.8696 18.4648 14.8325 18.2622 14.7102C18.0596 14.588 17.9136 14.3906 17.8559 14.1611Z" fill="#F39C12"/>
<path d="M12.4513 19.3257C10.9742 19.3248 9.54089 18.8247 8.3839 17.9066C5.57193 15.6856 4.08588 12.922 4.08588 9.91645V2.29259C4.08588 1.81716 4.27474 1.36121 4.61091 1.02504C4.94709 0.688861 5.40304 0.5 5.87846 0.5H19.0241C19.4995 0.5 19.9555 0.688861 20.2916 1.02504C20.6278 1.36121 20.8167 1.81716 20.8167 2.29259V9.91645C20.8167 12.922 19.3306 15.6856 16.5186 17.9066C15.3617 18.8247 13.9283 19.3248 12.4513 19.3257Z" fill="#F1C40F"/>
<path d="M18.3112 16.114C17.1547 17.033 15.721 17.5332 14.2439 17.5332C12.7667 17.5332 11.333 17.033 10.1765 16.114C7.36451 13.893 5.87846 11.1294 5.87846 8.12386V0.5C5.40304 0.5 4.94709 0.688861 4.61091 1.02504C4.27474 1.36121 4.08588 1.81716 4.08588 2.29259V9.91645C4.08588 12.922 5.57193 15.6856 8.3839 17.9066C9.54044 18.8256 10.9741 19.3258 12.4513 19.3258C13.9285 19.3258 15.3621 18.8256 16.5186 17.9066C17.2803 17.3099 17.9746 16.6319 18.5891 15.8846C18.4971 15.961 18.4068 16.0387 18.3112 16.114Z" fill="#F39C12"/>
<path d="M10.1705 9.6548L9.39791 8.65035C9.33871 8.57345 9.29913 8.48328 9.2826 8.38765C9.26607 8.29201 9.27308 8.19379 9.30302 8.10148C9.33297 8.00916 9.38496 7.92553 9.45448 7.85781C9.52401 7.7901 9.60898 7.74033 9.70205 7.71283L10.918 7.35431C11.0498 7.31542 11.1642 7.23227 11.2419 7.11889L11.9589 6.07381C12.0138 5.99371 12.0874 5.92818 12.1733 5.8829C12.2591 5.83763 12.3548 5.81396 12.4519 5.81396C12.549 5.81396 12.6446 5.83763 12.7305 5.8829C12.8164 5.92818 12.89 5.99371 12.9448 6.07381L13.6619 7.11889C13.7395 7.23227 13.8539 7.31542 13.9857 7.35431L15.2017 7.71283C15.2948 7.74033 15.3797 7.7901 15.4493 7.85781C15.5188 7.92553 15.5708 8.00916 15.6007 8.10148C15.6307 8.19379 15.6377 8.29201 15.6212 8.38765C15.6046 8.48328 15.565 8.57345 15.5058 8.65035L14.7332 9.6548C14.6495 9.76368 14.6058 9.8981 14.6096 10.0354L14.6442 11.3028C14.6468 11.3998 14.6258 11.496 14.5828 11.5831C14.5399 11.6701 14.4764 11.7454 14.3979 11.8024C14.3193 11.8594 14.2281 11.8965 14.132 11.9103C14.0359 11.9241 13.9379 11.9143 13.8465 11.8818L12.6515 11.4575C12.522 11.4115 12.3806 11.4115 12.2511 11.4575L11.0561 11.8818C10.9646 11.9143 10.8666 11.9241 10.7705 11.9103C10.6745 11.8965 10.5832 11.8594 10.5047 11.8024C10.4261 11.7454 10.3626 11.6701 10.3197 11.5831C10.2768 11.496 10.2557 11.3998 10.2584 11.3028L10.293 10.0354C10.2971 9.89825 10.2538 9.76384 10.1705 9.6548Z" fill="#F39C12"/>
</svg>
