<svg width="67" height="52" viewBox="0 0 67 52" fill="none" xmlns="http://www.w3.org/2000/svg">
<path d="M47.5219 38.3558L56.0085 23.9137C56.0383 23.862 56.0803 23.8189 56.1305 23.7884C56.1808 23.7579 56.2377 23.7409 56.296 23.7391H64.9992C65.0615 23.7396 65.1226 23.7571 65.1761 23.7899C65.2297 23.8228 65.2737 23.8697 65.3038 23.926C65.3339 23.9822 65.3489 24.0457 65.3473 24.11C65.3457 24.1742 65.3274 24.2368 65.2945 24.2913L58.7534 35.2538H66.346C66.4183 35.254 66.4888 35.2772 66.5478 35.3203C66.6068 35.3634 66.6514 35.4242 66.6755 35.4944C66.6997 35.5647 66.7022 35.6409 66.6827 35.7127C66.6631 35.7844 66.6226 35.8482 66.5665 35.8953L50.0266 49.6552C49.9633 49.7097 49.8835 49.7394 49.8011 49.7391C49.7187 49.7389 49.6391 49.7088 49.5761 49.654C49.5131 49.5993 49.4708 49.5234 49.4567 49.4397C49.4426 49.356 49.4575 49.2699 49.4989 49.1964L55.0909 38.8917H47.8212C47.7609 38.8904 47.702 38.873 47.6501 38.8413C47.5982 38.8096 47.5551 38.7646 47.525 38.7107C47.4949 38.6569 47.4788 38.5959 47.4783 38.5337C47.4777 38.4715 47.4928 38.4102 47.5219 38.3558Z" fill="#A8091F"/>
<path d="M48.2857 0H3.71429C2.7301 0.00293935 1.78706 0.395209 1.09114 1.09114C0.395209 1.78706 0.00293935 2.7301 0 3.71429V18.5714C0.00293935 19.5556 0.395209 20.4987 1.09114 21.1946C1.78706 21.8905 2.7301 22.2828 3.71429 22.2857H5.57143V15.2843C4.73455 14.5312 4.14546 13.5422 3.88178 12.4477C3.61811 11.3531 3.69222 10.2044 4.09435 9.15282C4.49649 8.10124 5.20777 7.19616 6.13449 6.55684C7.06121 5.91753 8.15987 5.57396 9.28571 5.57143H42.7143C43.8401 5.57396 44.9388 5.91753 45.8655 6.55684C46.7922 7.19616 47.5035 8.10124 47.9056 9.15282C48.3078 10.2044 48.3819 11.3531 48.1182 12.4477C47.8545 13.5422 47.2655 14.5312 46.4286 15.2843V22.2857H48.2857C49.2699 22.2828 50.2129 21.8905 50.9089 21.1946C51.6048 20.4987 51.9971 19.5556 52 18.5714V3.71429C51.9971 2.7301 51.6048 1.78706 50.9089 1.09114C50.2129 0.395209 49.2699 0.00293935 48.2857 0Z" fill="#A8091F"/>
<path d="M42.7143 9.28577H9.2857C8.79316 9.28577 8.32079 9.48143 7.9725 9.82971C7.62422 10.178 7.42856 10.6504 7.42856 11.1429C7.42856 11.6355 7.62422 12.1078 7.9725 12.4561C8.32079 12.8044 8.79316 13.0001 9.2857 13.0001V46.4286C9.2857 47.9063 9.87269 49.3234 10.9175 50.3682C11.9624 51.4131 13.3795 52 14.8571 52H37.1428C38.6205 52 40.0376 51.4131 41.0824 50.3682C42.1273 49.3234 42.7143 47.9063 42.7143 46.4286V13.0001C43.2068 13.0001 43.6792 12.8044 44.0275 12.4561C44.3758 12.1078 44.5714 11.6355 44.5714 11.1429C44.5714 10.6504 44.3758 10.178 44.0275 9.82971C43.6792 9.48143 43.2068 9.28577 42.7143 9.28577ZM18.5714 44.5715C18.5714 45.064 18.3758 45.5364 18.0275 45.8847C17.6792 46.233 17.2068 46.4286 16.7143 46.4286C16.2217 46.4286 15.7494 46.233 15.4011 45.8847C15.0528 45.5364 14.8571 45.064 14.8571 44.5715V40.8572C14.8571 40.3646 15.0528 39.8923 15.4011 39.544C15.7494 39.1957 16.2217 39 16.7143 39C17.2068 39 17.6792 39.1957 18.0275 39.544C18.3758 39.8923 18.5714 40.3646 18.5714 40.8572V44.5715ZM26 33.4286C24.5308 33.4286 23.0945 32.9929 21.8729 32.1767C20.6513 31.3604 19.6991 30.2002 19.1369 28.8428C18.5746 27.4854 18.4275 25.9918 18.7142 24.5508C19.0008 23.1098 19.7083 21.7862 20.7472 20.7473C21.7861 19.7084 23.1097 19.0009 24.5507 18.7142C25.9917 18.4276 27.4854 18.5747 28.8428 19.1369C30.2002 19.6992 31.3604 20.6513 32.1766 21.873C32.9929 23.0946 33.4286 24.5308 33.4286 26.0001C33.4286 27.9702 32.6459 29.8597 31.2528 31.2528C29.8597 32.646 27.9702 33.4286 26 33.4286Z" fill="#A8091F"/>
<path d="M26 29.7143C28.0513 29.7143 29.7143 28.0514 29.7143 26.0001C29.7143 23.9487 28.0513 22.2858 26 22.2858C23.9486 22.2858 22.2857 23.9487 22.2857 26.0001C22.2857 28.0514 23.9486 29.7143 26 29.7143Z" fill="#A8091F"/>
</svg>
