<svg width="57" height="57" viewBox="0 0 57 57" fill="none" xmlns="http://www.w3.org/2000/svg">
<path d="M11.7806 33.4256H22.2473V31.2169C22.2473 27.4476 19.1916 24.3919 15.4223 24.3919H7.58209C3.81274 24.3919 0.75708 27.4476 0.75708 31.2169V41.8739H11.7806V33.4256Z" fill="#A8091F"/>
<path d="M11.5022 20.9417C15.8655 20.9417 19.4027 17.4045 19.4027 13.0412C19.4027 8.67791 15.8655 5.14075 11.5022 5.14075C7.13888 5.14075 3.60172 8.67791 3.60172 13.0412C3.60172 17.4045 7.13888 20.9417 11.5022 20.9417Z" fill="#A8091F"/>
<path d="M15.0746 36.7195H20.7382V54.0171H15.0746V36.7195Z" fill="#A8091F"/>
<path d="M40.8819 34.7712H38.6101V29.4217C38.6101 26.3183 36.0944 23.8026 32.991 23.8026C31.7082 23.8026 30.6684 24.8424 30.6684 26.1252V31.6406L28.0385 34.7712L24.0322 36.7196V54.0172L27.7229 56.2133H40.8819C43.9532 56.2133 46.4429 53.7236 46.4429 50.6523V40.3322C46.4429 37.261 43.9532 34.7712 40.8819 34.7712Z" fill="#A8091F"/>
<path d="M27.2228 7.4132C30.1989 9.315 32.7342 11.8502 34.6361 14.8264C36.5379 11.8501 39.073 9.315 42.0493 7.4132C39.0731 5.51139 36.5379 2.97628 34.6361 0C32.7342 2.97628 30.1989 5.51139 27.2228 7.4132Z" fill="#A8091F"/>
<path d="M57.0001 19.2948C54.0239 17.393 51.4887 14.8578 49.5867 11.8816C47.6849 14.8579 45.1497 17.3931 42.1736 19.2948C45.1497 21.1966 47.6848 23.7317 49.5867 26.708C51.4887 23.7317 54.0238 21.1966 57.0001 19.2948Z" fill="#A8091F"/>
</svg>
