<svg width="44" height="52" viewBox="0 0 44 52" fill="none" xmlns="http://www.w3.org/2000/svg">
<path d="M38.7133 7.3457H38.0363V39.2995C38.0363 42.9779 35.0423 45.9737 31.3621 45.9737H7.3457V46.6545C7.3457 49.5853 9.72007 51.9412 12.6324 51.9412H38.7133C41.6442 51.9412 44 49.5853 44 46.6545V12.6509C44 9.72007 41.6442 7.3457 38.7133 7.3457Z" fill="#A8091F"/>
<path d="M21.9963 16.7096C20.9334 16.3627 19.7555 16.7374 18.8502 17.7094C18.5349 18.047 18.0934 18.24 17.6297 18.24C17.1659 18.24 16.7244 18.047 16.4091 17.7094C15.7246 16.9767 14.888 16.5853 14.0588 16.5853C13.7899 16.5853 13.5228 16.6261 13.2631 16.7115C12.2113 17.0509 11.5083 18.0396 11.332 19.4216C10.9332 22.5713 14.6877 25.3927 17.626 26.5002C20.5642 25.3909 24.3187 22.5676 23.9236 19.4197C23.7529 18.0378 23.0481 17.0491 21.9963 16.7096Z" fill="#A8091F"/>
<path d="M31.414 0H31.3676H5.28668C2.35582 0 0 2.37437 0 5.28668V39.3069V39.3533C0.0185497 41.5162 1.94958 43.1838 4.11248 43.1838H31.3676C33.5194 43.1838 35.2631 41.4401 35.2631 39.3069V3.86577C35.2631 1.73811 33.5417 0.00927487 31.414 0ZM4.43895 5.34418C4.6226 3.89359 6.12142 3.50961 7.03035 4.48347C7.93929 3.50961 9.43811 3.89359 9.62175 5.34418C9.79983 6.75767 8.23238 7.91147 7.03035 8.2973C5.82833 7.91332 4.25902 6.75767 4.43895 5.34418ZM18.1398 29.8558C17.9747 29.9078 17.8022 29.9337 17.6315 29.9337C17.4609 29.9337 17.2884 29.9078 17.1251 29.8558C13.2315 28.6148 7.31973 24.5691 8.02462 19.0005C8.36408 16.3201 9.94081 14.2759 12.241 13.532C14.0533 12.9459 16.0103 13.2779 17.6334 14.3816C19.2565 13.2761 21.2172 12.9477 23.0258 13.532C25.326 14.2759 26.9027 16.3201 27.2422 19.0005C27.9415 24.5673 22.0297 28.613 18.1398 29.8558ZM28.2327 38.7003C27.3238 39.6742 25.825 39.2902 25.6413 37.8396C25.4632 36.4261 27.0307 35.2723 28.2327 34.8884C29.4347 35.2723 31.004 36.4261 30.8241 37.8396C30.6405 39.2902 29.1417 39.6742 28.2327 38.7003Z" fill="#A8091F"/>
</svg>
