<svg width="35" height="60" viewBox="0 0 35 60" fill="none" xmlns="http://www.w3.org/2000/svg">
<path d="M34.2535 23.8251C33.5642 23.0361 32.182 21.7652 30.6959 22.1001C29.0785 22.4627 27.64 24.6816 26.5368 28.5223L26.3058 29.4943C26.0988 30.3827 25.8078 32.0559 25.8078 32.0559C25.5408 32.0439 25.27 32.0481 24.9951 32.0559C24.9951 32.0518 24.9952 32.0481 24.9993 32.0402C22.4853 32.1118 20.0313 32.813 17.7367 34.1038C15.3224 35.4703 13.0796 37.4822 11.1311 40.0798C10.7208 40.6295 10.386 41.1871 10.1272 41.7571L10.3623 40.6974C10.5018 40.052 10.9001 39.1757 11.5417 38.2033C13.4737 35.2513 17.6133 31.3866 23.4618 30.3231C23.4599 30.3193 23.4584 30.3152 23.4565 30.3114L23.4817 30.3231C23.4817 30.3231 23.4577 8.0294 23.4539 8.00952C23.2747 6.83015 22.2348 5.92978 20.9917 5.97778C19.693 6.03366 18.7008 7.17703 18.7008 8.47565V26.6046C18.7008 27.0058 18.3757 27.3309 17.9744 27.3309C17.5732 27.3309 17.2481 27.0058 17.2481 26.6046V2.49105C17.2481 1.18418 16.2401 0.0408059 14.9332 0.0010561C13.5787 -0.0386937 12.4672 1.0488 12.4672 2.3913V26.6046C12.4672 27.0058 12.1421 27.3309 11.7408 27.3309C11.3396 27.3309 11.0145 27.0058 11.0145 26.6046V6.07641C11.0145 4.76954 10.0065 3.62617 8.69584 3.58642C7.34135 3.54667 6.2336 4.63416 6.2336 5.97666V26.6046C6.2336 27.0058 5.90848 27.3309 5.50723 27.3309C5.10598 27.3309 4.78086 27.0058 4.78086 26.6046V10.8573C4.78086 9.55039 3.77286 8.40702 2.46224 8.36727C1.11187 8.32752 0 9.41502 0 10.7575V46.7765C0 51.0076 5.86423 54.581 12.8084 54.581C13.5693 54.581 14.3264 54.5292 15.0716 54.4456L13.8843 54.6128C12.9442 54.7482 11.976 54.8161 11.0081 54.8161C8.41834 54.8161 6.0041 54.35 3.90073 53.5291V59.9997H22.012V52.8286C22.012 51.9125 21.952 50.9919 22.5498 50.0397C23.5657 48.4261 25.3424 46.709 27.5219 44.6971C27.5219 44.6971 29.7209 42.6136 29.8285 42.482C29.8803 42.3388 33.7247 27.5023 34.4819 24.4705C34.5366 24.2436 34.2655 23.8412 34.2535 23.8251Z" fill="#A8091F"/>
</svg>
