<svg width="46" height="66" viewBox="0 0 46 66" fill="none" xmlns="http://www.w3.org/2000/svg">
<path d="M19.4163 40.9623C17.9989 40.9625 16.6133 41.383 15.4348 42.1706C14.2564 42.9583 13.3379 44.0776 12.7956 45.3872C12.2533 46.6968 12.1116 48.1378 12.3882 49.528C12.6648 50.9182 13.3475 52.1951 14.3498 53.1973C15.3522 54.1995 16.6292 54.882 18.0194 55.1585C19.4096 55.4349 20.8506 55.2929 22.1601 54.7505C23.4696 54.208 24.5889 53.2894 25.3763 52.1108C26.1638 50.9323 26.5841 49.5467 26.5841 48.1292C26.5819 46.229 25.8259 44.4072 24.4822 43.0636C23.1384 41.72 21.3165 40.9643 19.4163 40.9623ZM20.726 51.9601C20.6235 52.0031 20.5187 52.0402 20.412 52.0714V52.2246C20.412 52.4961 20.3041 52.7566 20.1121 52.9486C19.9201 53.1407 19.6596 53.2485 19.3881 53.2485C19.1165 53.2485 18.856 53.1407 18.664 52.9486C18.472 52.7566 18.3641 52.4961 18.3641 52.2246V51.9947C18.1427 51.919 17.9298 51.8204 17.7288 51.7006C17.4976 51.5586 17.3322 51.3306 17.269 51.0668C17.2057 50.8029 17.2498 50.5247 17.3914 50.2933C17.5331 50.0619 17.7609 49.8962 18.0247 49.8325C18.2884 49.7689 18.5667 49.8126 18.7983 49.9539C18.9643 50.0594 19.1524 50.1252 19.3479 50.1462C19.5434 50.1673 19.7411 50.1431 19.9258 50.0754C20.7 49.7475 19.4227 49.3733 19.1832 49.3056C18.4378 49.094 17.5104 48.8316 16.9634 47.9342C16.7235 47.5501 16.5976 47.1058 16.6002 46.653C16.6029 46.2002 16.734 45.7574 16.9784 45.3761C17.3072 44.8882 17.7981 44.5324 18.3641 44.3717V44.0338C18.3641 43.7623 18.472 43.5018 18.664 43.3098C18.856 43.1178 19.1165 43.0099 19.3881 43.0099C19.6596 43.0099 19.9201 43.1178 20.1121 43.3098C20.3041 43.5018 20.412 43.7623 20.412 44.0338V44.372C20.6593 44.4467 20.8958 44.5535 21.1153 44.6897C21.3441 44.836 21.5055 45.0672 21.5639 45.3324C21.6223 45.5977 21.5729 45.8753 21.4267 46.1041C21.2804 46.3329 21.0492 46.4943 20.784 46.5527C20.5187 46.6111 20.2411 46.5617 20.0123 46.4155C19.6727 46.1991 18.2826 46.1628 18.7111 46.8664C18.8414 47.0804 19.2988 47.2098 19.7413 47.3353C20.528 47.5583 21.717 47.8948 22.1272 49.164C22.2924 49.7209 22.2395 50.3197 21.9793 50.839C21.719 51.3583 21.271 51.7591 20.726 51.9601Z" fill="#A8091F"/>
<path d="M41.4018 24.5808H36.9462C36.6208 25.3133 36.2035 26.0014 35.7043 26.6285H40.4958L36.3999 30.7238H5.3911L11.4845 26.702C11.5626 26.6544 11.6521 26.629 11.7435 26.6285H16.44C15.9408 26.0014 15.5235 25.3133 15.198 24.5808H11.7435C11.2652 24.5831 10.797 24.7183 10.391 24.9713L1.44476 30.8753C1.30134 30.9708 1.18411 31.1006 1.10376 31.253C1.02341 31.4054 0.982502 31.5755 0.98477 31.7477V62.4409C0.979601 63.2549 1.29751 64.0378 1.86875 64.6177C2.44 65.1976 3.21795 65.5273 4.03195 65.5344H37.0229C37.2859 65.5348 37.5388 65.4336 37.7289 65.252L42.8483 60.3802C43.793 59.4811 43.9912 57.9497 43.9912 56.7173L43.9907 27.2274C43.9975 26.5334 43.7287 25.865 43.2434 25.3689C42.7581 24.8728 42.0958 24.5893 41.4018 24.5808ZM19.4163 57.3437C17.5939 57.3434 15.8125 56.8028 14.2973 55.7901C12.7822 54.7775 11.6013 53.3383 10.9041 51.6545C10.2068 49.9708 10.0245 48.1181 10.3802 46.3307C10.7359 44.5433 11.6136 42.9016 12.9023 41.613C14.1911 40.3245 15.8329 39.447 17.6204 39.0916C19.4078 38.7361 21.2604 38.9187 22.9441 39.6161C24.6278 40.3136 26.0668 41.4946 27.0793 43.0099C28.0917 44.5252 28.6321 46.3067 28.6321 48.1292C28.6291 50.5723 27.6572 52.9145 25.9295 54.642C24.2018 56.3694 21.8595 57.3411 19.4163 57.3437ZM41.3743 58.9564L37.8479 62.3123V32.1716L41.9428 28.0773V56.6203L41.9433 56.7318C42.0013 57.5155 41.8015 58.2968 41.3743 58.9564Z" fill="#A8091F"/>
<path d="M24.7777 28.6307C25.6567 28.6843 26.5382 28.6833 27.4171 28.6277C31.238 28.3933 35.4839 25.8552 35.7774 20.8365C36.0189 16.7296 34.287 13.5306 32.3795 10.685C31.9075 9.98166 31.403 9.36127 30.915 8.76087C30.7503 8.55838 30.594 8.35935 30.4354 8.1597C30.6749 8.09542 30.8829 7.9462 31.0205 7.73987C31.1581 7.53354 31.2159 7.2842 31.1831 7.03838C31.1504 6.79255 31.0294 6.56703 30.8426 6.4039C30.6558 6.24076 30.416 6.15115 30.168 6.15179H29.5839C29.7193 5.28421 29.9319 4.43045 30.2191 3.60066C30.4691 3.03348 30.8445 2.62327 30.8325 1.95992C30.8246 1.56844 30.6831 1.19144 30.4315 0.891457C30.1798 0.591474 29.8332 0.386544 29.4491 0.310671C28.8868 0.212919 28.3087 0.339848 27.8391 0.664132C27.7951 0.691267 27.2165 1.07806 27.2126 1.07206C27.0368 0.741782 26.7882 0.455792 26.4856 0.235706C25.9472 -0.10323 25.1152 -0.24372 24.2087 1.00062C24.1657 1.06335 24.1196 1.12386 24.0705 1.18193C23.7949 0.928642 23.4816 0.719576 23.142 0.562159C22.926 0.484949 22.6961 0.45457 22.4675 0.473039C22.2388 0.491508 22.0168 0.558404 21.816 0.669283C21.6152 0.780162 21.4403 0.932488 21.3029 1.11615C21.1655 1.2998 21.0687 1.51059 21.019 1.73451C20.9816 2.07063 21.0143 2.41083 21.1148 2.73372C21.2154 3.05661 21.3817 3.35519 21.6033 3.61066C22.0053 4.41176 22.286 5.26815 22.4363 6.15179H21.9763C21.7356 6.15122 21.5024 6.23564 21.3179 6.39016C21.1334 6.54469 21.0094 6.75939 20.9677 6.99642C20.926 7.23345 20.9694 7.47759 21.0901 7.68579C21.2108 7.89399 21.4012 8.05288 21.6276 8.13446C20.9995 8.97919 20.3511 9.81071 19.7648 10.6856C17.8571 13.5311 16.1252 16.7306 16.3666 20.836C16.6596 25.8552 20.9058 28.3933 24.7777 28.6307ZM25.5882 2.55733C25.6177 2.52434 25.6477 2.48884 25.6782 2.45135C25.8823 2.72782 26.168 2.93326 26.4951 3.03873C26.8022 3.13299 27.1261 3.15951 27.4445 3.11645C27.7628 3.07338 28.0681 2.96177 28.3391 2.7893C27.9525 3.88047 27.6727 5.00657 27.5035 6.15178H24.5259C24.3503 5.15982 24.0738 4.18841 23.7007 3.25271C24.0489 3.32586 24.4106 3.29942 24.7444 3.17643C25.0783 3.05344 25.3707 2.83888 25.5882 2.55733ZM23.6337 14.6615C23.9628 14.1733 24.4539 13.8172 25.0202 13.6562V13.3186C25.0202 13.0471 25.1281 12.7866 25.3201 12.5946C25.5121 12.4025 25.7726 12.2947 26.0441 12.2947C26.3157 12.2947 26.5762 12.4025 26.7682 12.5946C26.9602 12.7866 27.0681 13.0471 27.0681 13.3186V13.6573C27.3152 13.7322 27.5515 13.8389 27.7711 13.9745C27.8844 14.047 27.9823 14.141 28.0593 14.2513C28.1363 14.3615 28.1908 14.4859 28.2197 14.6172C28.2486 14.7486 28.2514 14.8843 28.2278 15.0167C28.2043 15.1491 28.1549 15.2756 28.0825 15.3889C28.01 15.5022 27.916 15.6001 27.8057 15.6771C27.6955 15.7541 27.5711 15.8086 27.4398 15.8375C27.3084 15.8664 27.1727 15.8692 27.0403 15.8456C26.9079 15.8221 26.7814 15.7727 26.6681 15.7003C26.3456 15.4948 25.5869 15.4163 25.3442 15.7878C25.0008 16.3132 26.1198 16.5415 26.397 16.6201C27.1836 16.8431 28.3726 17.1796 28.7831 18.4489C28.9482 19.0059 28.8952 19.6049 28.6348 20.1243C28.3744 20.6436 27.9262 21.0445 27.3811 21.2454C27.2789 21.2884 27.1744 21.3254 27.0681 21.3565V21.5094C27.0681 21.781 26.9602 22.0414 26.7682 22.2335C26.5761 22.4255 26.3157 22.5334 26.0441 22.5334C25.7725 22.5334 25.5121 22.4255 25.3201 22.2335C25.128 22.0414 25.0201 21.781 25.0201 21.5094V21.2795C24.7987 21.2038 24.5857 21.1053 24.3847 20.9855C24.1536 20.8433 23.9883 20.6153 23.9252 20.3514C23.862 20.0876 23.9061 19.8094 24.0478 19.578C24.1896 19.3467 24.4173 19.181 24.6811 19.1174C24.9448 19.0538 25.2231 19.0974 25.4547 19.2387C25.6205 19.3442 25.8084 19.41 26.0037 19.431C26.1991 19.4521 26.3967 19.4279 26.5812 19.3602C27.3642 19.0312 26.107 18.6665 25.8387 18.5903C25.0937 18.3789 24.1662 18.1164 23.6192 17.2185C23.3796 16.8346 23.2537 16.3905 23.2563 15.9379C23.2589 15.4853 23.3897 15.0427 23.6337 14.6615Z" fill="#A8091F"/>
<path d="M10.2005 16.6186C9.99806 16.6186 9.80012 16.6787 9.63176 16.7912C9.4634 16.9037 9.33219 17.0636 9.25472 17.2507C9.17725 17.4378 9.15699 17.6437 9.19651 17.8423C9.23603 18.0409 9.33355 18.2233 9.47674 18.3665C9.61994 18.5096 9.80237 18.6071 10.001 18.6466C10.1996 18.6861 10.4054 18.6658 10.5925 18.5883C10.7796 18.5109 10.9395 18.3796 11.052 18.2113C11.1645 18.0429 11.2245 17.8449 11.2245 17.6424C11.2237 17.3711 11.1155 17.1112 10.9237 16.9193C10.7318 16.7275 10.4719 16.6194 10.2005 16.6186Z" fill="#A8091F"/>
<path d="M7.55384 10.848C7.66292 10.9267 7.78645 10.9832 7.91736 11.0141C8.04827 11.045 8.184 11.0498 8.31677 11.0282C8.44954 11.0066 8.57675 10.9591 8.69112 10.8883C8.8055 10.8175 8.90478 10.7248 8.98331 10.6156L10.2005 8.92685C10.2005 8.92685 11.4155 10.6124 11.4177 10.6156C11.5809 10.83 11.8202 10.9737 12.0861 11.0169C12.3521 11.0602 12.6245 10.9997 12.8472 10.848C12.9563 10.7694 13.0488 10.6701 13.1195 10.5557C13.1902 10.4413 13.2377 10.3142 13.2592 10.1814C13.2808 10.0487 13.276 9.91306 13.2451 9.78219C13.2142 9.65133 13.1578 9.52783 13.0792 9.41875L11.0313 6.57722C10.9364 6.44555 10.8116 6.33831 10.6672 6.26434C10.5228 6.19037 10.3628 6.15179 10.2005 6.15179C10.0383 6.15179 9.8783 6.19037 9.73387 6.26434C9.58943 6.33831 9.46465 6.44555 9.3698 6.57722L7.32185 9.41875C7.24323 9.52783 7.18687 9.65133 7.15598 9.78219C7.12509 9.91305 7.12029 10.0487 7.14183 10.1814C7.16337 10.3142 7.21084 10.4413 7.28154 10.5557C7.35223 10.6701 7.44476 10.7694 7.55384 10.848Z" fill="#A8091F"/>
<path d="M10.2006 12.5233C9.99809 12.5233 9.80015 12.5834 9.6318 12.6959C9.46345 12.8085 9.33224 12.9684 9.25477 13.1554C9.1773 13.3425 9.15705 13.5484 9.19657 13.747C9.23609 13.9456 9.33362 14.128 9.47681 14.2712C9.62001 14.4143 9.80244 14.5118 10.001 14.5513C10.1996 14.5908 10.4055 14.5705 10.5926 14.493C10.7796 14.4155 10.9395 14.2843 11.052 14.1159C11.1645 13.9476 11.2246 13.7496 11.2246 13.5471C11.2237 13.2758 11.1156 13.0159 10.9237 12.8241C10.7318 12.6322 10.4719 12.5241 10.2006 12.5233Z" fill="#A8091F"/>
<path d="M10.2006 20.7139C9.99809 20.714 9.80016 20.774 9.6318 20.8865C9.46345 20.9991 9.33225 21.159 9.25478 21.3461C9.17731 21.5331 9.15705 21.739 9.19657 21.9376C9.23609 22.1362 9.33361 22.3186 9.4768 22.4618C9.61999 22.6049 9.80242 22.7024 10.001 22.7419C10.1996 22.7814 10.4055 22.7612 10.5925 22.6837C10.7796 22.6062 10.9395 22.4749 11.052 22.3066C11.1645 22.1382 11.2246 21.9403 11.2246 21.7378C11.2237 21.4665 11.1156 21.2065 10.9237 21.0147C10.7319 20.8229 10.4719 20.7147 10.2006 20.7139Z" fill="#A8091F"/>
<path d="M41.9438 18.6663C42.1463 18.6663 42.3442 18.6062 42.5126 18.4937C42.6809 18.3812 42.8121 18.2213 42.8896 18.0342C42.9671 17.8471 42.9873 17.6412 42.9478 17.4426C42.9083 17.244 42.8108 17.0616 42.6676 16.9184C42.5244 16.7753 42.342 16.6778 42.1434 16.6383C41.9448 16.5988 41.7389 16.619 41.5518 16.6965C41.3647 16.774 41.2048 16.9053 41.0923 17.0736C40.9799 17.242 40.9198 17.44 40.9198 17.6424C40.9193 17.777 40.9455 17.9104 40.9968 18.0348C41.0481 18.1593 41.1235 18.2723 41.2187 18.3675C41.3139 18.4627 41.4269 18.5381 41.5514 18.5894C41.6758 18.6406 41.8092 18.6668 41.9438 18.6663Z" fill="#A8091F"/>
<path d="M44.8225 9.41875L42.7745 6.57722C42.6797 6.44555 42.5549 6.33831 42.4104 6.26434C42.266 6.19037 42.1061 6.15179 41.9438 6.15179C41.7815 6.15179 41.6216 6.19037 41.4771 6.26434C41.3327 6.33831 41.2079 6.44555 41.1131 6.57722L39.0651 9.41875C38.9064 9.63908 38.8417 9.91342 38.8853 10.1814C38.9288 10.4495 39.0771 10.6892 39.2974 10.8479C39.5177 11.0066 39.7921 11.0713 40.0601 11.0277C40.3281 10.9841 40.5679 10.8359 40.7266 10.6156L41.9438 8.92683C41.9438 8.92683 43.1587 10.6124 43.161 10.6156C43.3242 10.83 43.5634 10.9736 43.8294 11.0169C44.0953 11.0601 44.3678 10.9997 44.5905 10.848C44.8108 10.6892 44.959 10.4495 45.0025 10.1814C45.046 9.91339 44.9812 9.63905 44.8225 9.41875Z" fill="#A8091F"/>
<path d="M41.9438 14.571C42.1463 14.571 42.3442 14.5109 42.5126 14.3984C42.6809 14.2859 42.8121 14.1259 42.8896 13.9389C42.9671 13.7518 42.9873 13.5459 42.9478 13.3473C42.9083 13.1487 42.8108 12.9663 42.6676 12.8231C42.5244 12.68 42.3419 12.5825 42.1433 12.543C41.9447 12.5035 41.7389 12.5238 41.5518 12.6013C41.3647 12.6788 41.2048 12.81 41.0924 12.9783C40.9799 13.1467 40.9198 13.3446 40.9198 13.5471C40.9193 13.6817 40.9455 13.8151 40.9968 13.9395C41.0481 14.064 41.1235 14.177 41.2187 14.2722C41.3139 14.3674 41.4269 14.4428 41.5514 14.494C41.6758 14.5453 41.8092 14.5715 41.9438 14.571Z" fill="#A8091F"/>
<path d="M41.9438 22.7616C42.1463 22.7616 42.3442 22.7015 42.5126 22.589C42.6809 22.4765 42.8121 22.3166 42.8896 22.1295C42.9671 21.9424 42.9873 21.7365 42.9478 21.5379C42.9083 21.3393 42.8107 21.1569 42.6675 21.0137C42.5244 20.8706 42.3419 20.7731 42.1433 20.7336C41.9447 20.6941 41.7389 20.7144 41.5518 20.7919C41.3647 20.8694 41.2048 21.0006 41.0923 21.169C40.9798 21.3373 40.9198 21.5353 40.9198 21.7378C40.9193 21.8724 40.9455 22.0057 40.9968 22.1302C41.0481 22.2546 41.1235 22.3677 41.2187 22.4628C41.3139 22.558 41.4269 22.6334 41.5514 22.6847C41.6758 22.7359 41.8092 22.7621 41.9438 22.7616Z" fill="#A8091F"/>
</svg>
