<svg width="53" height="59" viewBox="0 0 53 59" fill="none" xmlns="http://www.w3.org/2000/svg">
<path d="M6.03533 41.8169L1.60205 43.1237C1.26012 43.2215 0.991402 43.4657 0.832629 43.7832C0.68608 44.1008 0.68608 44.4794 0.832629 44.7969L6.68265 57.8891C6.89025 58.3409 7.32989 58.6219 7.80621 58.6219C7.91616 58.6219 8.03826 58.5974 8.14821 58.573L12.5815 57.2663C12.9234 57.1563 13.2043 56.9243 13.3508 56.6067C13.4975 56.277 13.4975 55.9106 13.3508 55.593L7.50089 42.4886C7.24439 41.939 6.6216 41.646 6.03533 41.8169Z" fill="#A8091F"/>
<path d="M52.7253 44.3449C53.0916 43.3801 53.0916 42.3298 52.7253 41.3772C52.3344 40.3391 51.5283 39.533 50.4781 39.0934C49.3789 38.6415 48.1088 38.6537 47.0218 39.1422L32.7328 45.5907C32.6716 46.3967 32.464 47.105 32.0977 47.7279C31.1207 49.4254 29.4597 49.7552 29.2643 49.7797C29.02 49.8407 28.7636 49.8652 28.4949 49.8652C28.1773 49.8652 27.8598 49.8285 27.5301 49.7552C27.3591 49.7185 27.1758 49.6575 26.9927 49.5964L20.1901 47.7401C19.5306 47.5691 19.152 46.8974 19.323 46.2501C19.5062 45.5907 20.1901 45.212 20.8252 45.383L27.7377 47.276C27.9209 47.3371 27.9819 47.3492 28.0552 47.3737C28.3361 47.4347 28.5804 47.4347 28.8124 47.3859C28.8735 47.3737 29.594 47.2149 29.997 46.4822C30.1314 46.2379 30.2168 45.9693 30.2657 45.6517C30.4978 44.1495 29.5696 42.6595 28.1407 42.1099C28.1285 42.1099 28.1285 42.1099 28.1285 42.1099L20.7397 39.2888C18.7734 38.5316 16.6361 38.5926 14.7065 39.4475L9.79694 41.6458L14.8531 52.9428L15.6591 52.5886L25.2706 56.2647C25.9057 56.5089 26.5652 56.6189 27.2247 56.6189C27.9942 56.6189 28.7514 56.4601 29.4719 56.1425L50.5513 46.6532C51.5528 46.2013 52.3222 45.383 52.7253 44.3449Z" fill="#A8091F"/>
<path d="M30.9374 40.8765C31.1206 40.962 31.3038 41.0109 31.4992 41.0109C31.6824 41.0109 31.8778 40.962 32.0487 40.8765C33.7464 40.0216 48.7071 32.2176 48.7071 24.2426V7.0102C48.7071 6.49728 48.3774 6.03319 47.9011 5.86219L31.9022 0.073293C31.6335 -0.024431 31.3405 -0.024431 31.0717 0.073293L15.0729 5.86219C14.5843 6.03319 14.2668 6.49728 14.2668 7.0102V24.2426C14.2668 32.1932 29.2398 40.0094 30.9374 40.8765ZM31.487 9.02536C37.1782 9.02536 41.8069 13.654 41.8069 19.3453C41.8069 25.0242 37.1782 29.6529 31.487 29.6529C25.7958 29.6529 21.1671 25.0242 21.1671 19.3453C21.1671 13.654 25.7958 9.02536 31.487 9.02536Z" fill="#A8091F"/>
<path d="M29.0078 23.1067C29.2398 23.3266 29.5573 23.461 29.8749 23.461C30.2047 23.461 30.51 23.3266 30.742 23.1067L36.5309 17.3056C37.0194 16.8294 37.0194 16.06 36.5309 15.5836C36.0546 15.0951 35.2852 15.0951 34.8089 15.5836L29.8749 20.5176L28.1651 18.7956C27.6888 18.3193 26.9072 18.3193 26.4308 18.7956C25.9545 19.2719 25.9545 20.0535 26.4308 20.5298L29.0078 23.1067Z" fill="#A8091F"/>
</svg>
